<?xml version="1.0" encoding="UTF-8"?>
<svg version="1.1" xmlns="http://www.w3.org/2000/svg" width="512" height="512">
<path d="M0 0 C1.01201477 0.00054382 2.02402954 0.00108765 3.06671143 0.00164795 C19.60117395 0.0423949 35.52064864 0.96613093 51.75 4.375 C52.76529785 4.58398926 53.7805957 4.79297852 54.82666016 5.00830078 C102.26191172 15.08725364 144.95477718 38.83328266 179.75 72.375 C180.30606934 72.90915527 180.86213867 73.44331055 181.43505859 73.99365234 C188.74462845 81.05152969 195.57207844 88.28915648 201.75 96.375 C202.26675293 97.04241211 202.78350586 97.70982422 203.31591797 98.39746094 C238.3182428 143.79562604 257.24118295 198.26465817 257.125 255.625 C257.12418427 257.14302216 257.12418427 257.14302216 257.12335205 258.69171143 C257.08261077 275.22387291 256.16682284 291.148992 252.75 307.375 C252.42854004 308.921875 252.42854004 308.921875 252.10058594 310.5 C241.93886882 357.83259793 218.24523694 400.62799463 184.75 435.375 C184.21584473 435.93106934 183.68168945 436.48713867 183.13134766 437.06005859 C176.07347031 444.36962845 168.83584352 451.19707844 160.75 457.375 C160.08258789 457.89175293 159.41517578 458.40850586 158.72753906 458.94091797 C113.20028824 494.04276886 58.63586172 512.91212536 1.125 512.6875 C-0.32983292 512.68476578 -0.32983292 512.68476578 -1.8140564 512.68197632 C-16.16556055 512.63658309 -30.12942918 512.1312347 -44.25 509.375 C-45.14702637 509.21402832 -46.04405273 509.05305664 -46.96826172 508.88720703 C-98.15147794 499.62565165 -143.13784854 474.22875695 -180.25 438.375 C-180.77255371 437.87436035 -181.29510742 437.3737207 -181.83349609 436.85791016 C-188.51920721 430.43498493 -194.60302862 423.72336941 -200.25 416.375 C-200.76965332 415.7046875 -201.28930664 415.034375 -201.82470703 414.34375 C-226.08061669 382.87961826 -242.80199011 346.87207126 -251.0625 308 C-251.25739014 307.08710205 -251.45228027 306.1742041 -251.65307617 305.23364258 C-254.89884698 289.07917376 -255.6250833 273.18547931 -255.5625 256.75 C-255.56034485 255.73209381 -255.5581897 254.71418762 -255.55596924 253.66543579 C-255.50629854 239.05636477 -255.25540191 224.72424147 -252.25 210.375 C-252.05132324 209.40014648 -251.85264648 208.42529297 -251.64794922 207.42089844 C-241.28913481 157.90033399 -218.3380545 113.77434897 -183.25 77.375 C-182.71584473 76.81893066 -182.18168945 76.26286133 -181.63134766 75.68994141 C-174.57347031 68.38037155 -167.33584352 61.55292156 -159.25 55.375 C-158.58258789 54.85824707 -157.91517578 54.34149414 -157.22753906 53.80908203 C-141.01556322 41.30952741 -123.80469845 31.00787354 -105.25 22.375 C-104.55567871 22.04935059 -103.86135742 21.72370117 -103.14599609 21.38818359 C-82.64489661 11.90729182 -60.57693133 5.68050474 -38.25 2.375 C-37.13189941 2.19984863 -36.01379883 2.02469727 -34.86181641 1.84423828 C-23.24356028 0.18575552 -11.72359297 -0.02374605 0 0 Z " fill="#F34235" transform="translate(255.25,-0.375)"/>
<path d="M0 0 C0.91516231 -0.00467997 1.83032461 -0.00935994 2.77321911 -0.01418173 C5.85262045 -0.02618776 8.93158136 -0.01665259 12.01098633 -0.00723267 C14.21343242 -0.01129587 16.41587648 -0.01663633 18.61831665 -0.02316284 C24.60993546 -0.03687205 30.60139979 -0.0315229 36.59302139 -0.02202559 C42.85368527 -0.01444765 49.11433562 -0.02146939 55.375 -0.02618408 C66.56423467 -0.03199733 77.75341246 -0.0226551 88.94263351 -0.00740607 C99.09208032 0.00599759 109.24142419 0.00366963 119.39086914 -0.01016235 C131.17121945 -0.02620942 142.95151959 -0.03219694 154.73188114 -0.02332556 C160.9699914 -0.01864051 167.20803073 -0.01804701 173.44613647 -0.02793503 C179.30988015 -0.03657984 185.17342881 -0.03062827 191.03715134 -0.01325226 C193.19349213 -0.00927411 195.34984925 -0.01044401 197.50618362 -0.01704025 C200.44135823 -0.0251934 203.3759012 -0.01500974 206.31103516 0 C207.60221646 -0.01003825 207.60221646 -0.01003825 208.91948223 -0.02027929 C214.72253034 0.03759735 214.72253034 0.03759735 216.87868023 1.74739778 C218.76892987 4.16573498 218.44185258 5.94704913 218.31762695 8.98202515 C218.27585327 10.16684479 218.23407959 11.35166443 218.19104004 12.5723877 C218.12775513 13.88851044 218.06447021 15.20463318 217.99926758 16.56063843 C217.94181635 17.97342918 217.8854119 19.38626282 217.82995605 20.7991333 C217.63141995 25.66106334 217.39474371 30.52087873 217.15551758 35.38095093 C217.11225342 36.27467911 217.06898926 37.16840729 217.02441406 38.08921814 C216.34239246 52.17455783 215.5937521 66.25604017 214.82733154 80.33700562 C214.59630002 84.59816245 214.36890342 88.85951002 214.14159393 93.12086678 C213.91962581 97.27850218 213.69624529 101.43606068 213.47236633 105.5935936 C213.36689016 107.55251667 213.26164799 109.51145236 213.15666199 111.47040176 C212.63843083 121.11523177 212.07760289 130.75028968 211.36431885 140.3828125 C211.06546488 144.67400085 210.88302317 148.96540848 210.72583008 153.26376343 C210.65403265 155.08864848 210.58183115 156.91351767 210.50927734 158.7383728 C210.47230743 159.67866333 210.43533752 160.61895386 210.39724731 161.58773804 C209.73831081 178.06097827 208.95429325 194.52693295 207.90179443 210.98001099 C207.77998509 212.90278622 207.66262224 214.82584868 207.54986572 216.74917603 C207.39115599 219.42954848 207.21529871 222.10824453 207.03442383 224.78720093 C206.96873451 225.96540909 206.96873451 225.96540909 206.90171814 227.16741943 C206.50258152 232.6461383 205.27887557 236.97482128 201.54223633 241.20907593 C200.98149414 241.67829468 200.42075195 242.14751343 199.84301758 242.63095093 C199.29000977 243.11048218 198.73700195 243.59001343 198.16723633 244.08407593 C193.30391049 247.21926851 188.48070706 247.63452043 182.80618286 247.65510559 C182.08799562 247.66034227 181.36980839 247.66557895 180.6298579 247.67097431 C178.23487093 247.68591857 175.84009866 247.68667822 173.44506836 247.68734741 C171.72319175 247.69497256 170.00131854 247.70340067 168.27944946 247.71257019 C163.60998843 247.73448474 158.94059286 247.74330979 154.27108622 247.74839664 C151.35195931 247.75204327 148.43284948 247.75828487 145.5137291 247.76539803 C135.32481891 247.78988023 125.13595957 247.80294213 114.94702148 247.80648804 C105.45728479 247.81012417 95.96787134 247.84002829 86.47823346 247.88189262 C78.32347893 247.91660383 70.16883153 247.93203661 62.01400363 247.93273407 C57.14668337 247.93352648 52.27969265 247.94224911 47.41244888 247.97073174 C42.83386962 247.99692721 38.25589286 247.99910942 33.6772728 247.9830761 C32.00032994 247.98126289 30.32335232 247.98794083 28.64648438 248.00389481 C12.18693018 248.15090384 12.18693018 248.15090384 6.15551758 242.38095093 C1.61934299 237.8037123 0.09889558 234.09315146 -0.3059082 227.70297241 C-0.3835994 226.50172226 -0.46129059 225.30047211 -0.54133606 224.06282043 C-0.62438153 222.70924235 -0.70719125 221.35564979 -0.78979492 220.00204468 C-0.88119579 218.54569975 -0.97276955 217.08936566 -1.0644989 215.63304138 C-1.31914483 211.56078927 -1.5669021 207.48814357 -1.81262589 203.41534424 C-1.96954647 200.81739055 -2.12791051 198.21952781 -2.28646851 195.62167358 C-4.57750789 157.95936092 -6.50432693 120.27732343 -8.41756439 82.59431839 C-8.57733261 79.44758051 -8.73743648 76.30086001 -8.8978653 73.15415573 C-9.36089859 64.07131441 -9.82093638 54.98833063 -10.27604103 45.90508842 C-10.41649097 43.10263506 -10.55796667 40.30023654 -10.70035362 37.49788094 C-10.89692628 33.62636681 -11.08931923 29.75465121 -11.28125 25.88290405 C-11.33886065 24.75711661 -11.39647129 23.63132917 -11.45582771 22.47142696 C-11.60401886 19.44168365 -11.72952245 16.41211687 -11.84448242 13.38095093 C-11.89060858 12.42736191 -11.93673473 11.47377289 -11.98425865 10.49128723 C-12.01162416 9.59889847 -12.03898968 8.7065097 -12.06718445 7.78707886 C-12.09690684 7.00656914 -12.12662924 6.22605942 -12.15725231 5.42189789 C-11.1858145 -0.91711721 -5.10061173 -0.03965454 0 0 Z " fill="#FEFCFC" transform="translate(152.844482421875,170.61904907226563)"/>
<path d="M0 0 C1.05562134 0.01244751 1.05562134 0.01244751 2.13256836 0.02514648 C10.04066386 0.27995383 16.22788428 2.26215354 22.125 7.6875 C26.55448452 12.57448997 28.8252194 17.98999513 30.859375 24.1953125 C31.12202148 24.99340332 31.38466797 25.79149414 31.65527344 26.61376953 C31.94966309 27.51651611 31.94966309 27.51651611 32.25 28.4375 C33.97768112 28.44296844 33.97768112 28.44296844 35.74026489 28.44854736 C46.59907964 28.48550157 57.45761091 28.54327913 68.31620979 28.62140274 C73.89864395 28.66089817 79.48091987 28.69307664 85.06347656 28.70849609 C90.4517972 28.72364888 95.83968288 28.75807041 101.22780991 28.80580902 C103.28263441 28.82063695 105.337521 28.82854182 107.39239883 28.82938385 C110.27264941 28.83175096 113.15169548 28.85881046 116.03173828 28.89160156 C116.87978531 28.8865712 117.72783234 28.88154083 118.60157776 28.87635803 C123.93009208 28.97010861 127.08855811 29.80668827 131.25 33.4375 C134.25 38.4375 134.25 38.4375 134.25 53.4375 C46.47 53.4375 -41.31 53.4375 -131.75 53.4375 C-131.75 38.4375 -131.75 38.4375 -127.75 32.4375 C-123.40484883 28.75574508 -119.07765694 28.99597291 -113.64526367 29.00512695 C-112.73745148 28.9949353 -111.82963928 28.98474365 -110.89431763 28.97424316 C-107.90213852 28.94411711 -104.91027959 28.93484773 -101.91796875 28.92578125 C-99.84002112 28.9089343 -97.76208368 28.89078403 -95.68415833 28.87138367 C-90.22127466 28.82387948 -84.75843231 28.7940727 -79.29541016 28.76794434 C-73.71834147 28.73814104 -68.14141515 28.69160987 -62.56445312 28.64648438 C-51.62637654 28.56044641 -40.68827067 28.4931032 -29.75 28.4375 C-29.45343506 27.53366577 -29.45343506 27.53366577 -29.15087891 26.61157227 C-28.88710449 25.81291748 -28.62333008 25.0142627 -28.3515625 24.19140625 C-27.96218506 23.00913452 -27.96218506 23.00913452 -27.56494141 21.80297852 C-24.40114121 12.61961719 -19.31612816 6.81748869 -10.9453125 1.734375 C-7.22431585 0.22414164 -3.95609942 -0.06010583 0 0 Z " fill="#FEFDFC" transform="translate(254.75,94.5625)"/>
<path d="M0 0 C4.03262918 2.09099291 6.44228691 3.73109948 8 8 C8.29454173 10.86851721 8.48933 13.65585129 8.59375 16.53125 C8.63077026 17.37167847 8.66779053 18.21210693 8.70593262 19.07800293 C9.05435051 27.35725906 9.27038757 35.64075407 9.44555664 43.92526245 C9.50206075 46.59745697 9.56218752 49.26955169 9.62304688 51.94165039 C9.73022789 56.67225197 9.83438963 61.40291407 9.9375 66.13360596 C10.12141384 74.5683183 10.30873667 83.00295113 10.5 91.4375 C10.53056362 92.79310595 10.53056362 92.79310595 10.56174469 94.17609787 C10.83580873 106.2359509 11.19824799 118.2869795 11.67498779 130.34072876 C12.01489163 139.02038512 12.21494031 147.68896276 12.25 156.375 C12.2603125 157.05449707 12.270625 157.73399414 12.28125 158.43408203 C12.31157842 160.44286568 12.32019214 162.45194058 12.328125 164.4609375 C12.34214355 166.17482666 12.34214355 166.17482666 12.35644531 167.92333984 C11.95836922 171.35933639 10.97772763 173.19873713 9 176 C8.608125 176.5775 8.21625 177.155 7.8125 177.75 C4.7943556 179.8314789 1.57523727 180.22345233 -2 180 C-6.52649732 177.77945414 -8.7538516 175.45065688 -11 171 C-11.43161297 168.32060051 -11.43161297 168.32060051 -11.51261902 165.37936401 C-11.55039963 164.2587709 -11.58818024 163.1381778 -11.62710571 161.98362732 C-11.65372284 160.76297073 -11.68033997 159.54231415 -11.70776367 158.28466797 C-11.74721603 156.99106857 -11.7866684 155.69746918 -11.82731628 154.3646698 C-11.93511262 150.81601962 -12.02517402 147.26711644 -12.11189818 143.71789694 C-12.20616565 139.97596963 -12.31611563 136.23450099 -12.42414856 132.49295044 C-12.60401346 126.18661222 -12.77328606 119.88006309 -12.93530273 113.57324219 C-13.14109371 105.56385884 -13.36306935 97.55501754 -13.5908308 89.54623222 C-13.78877862 82.58396209 -13.97990095 75.62150662 -14.16956925 68.6590066 C-14.22953416 66.46389972 -14.29020583 64.26881313 -14.35091209 62.07372665 C-14.57254172 53.9935973 -14.76466675 45.91362877 -14.91930771 37.83187103 C-14.97375859 35.24613784 -15.03837019 32.66060138 -15.11243057 30.07535553 C-15.21879854 26.3330484 -15.29319673 22.59132889 -15.3605957 18.84814453 C-15.39959834 17.73521467 -15.43860098 16.62228481 -15.47878551 15.47562981 C-15.57779137 7.01452861 -15.57779137 7.01452861 -12.60246277 3.32199097 C-8.59786871 -0.25102123 -5.26656961 -0.71460889 0 0 Z " fill="#F34437" transform="translate(199,205)"/>
<path d="M0 0 C3.74160637 1.66293616 5.82700159 3.56075094 8 7 C8.34298706 9.23779297 8.34298706 9.23779297 8.29638672 11.7421875 C8.28568649 12.7041806 8.27498627 13.66617371 8.26396179 14.65731812 C8.23615128 15.71915314 8.20834076 16.78098816 8.1796875 17.875 C8.16158524 19.01909332 8.14348297 20.16318665 8.12483215 21.34194946 C8.06967103 24.54961178 7.99998646 27.75655651 7.9227562 30.96375275 C7.85866006 33.69670891 7.80421999 36.42982779 7.74929333 39.16298103 C7.59061463 47.00064498 7.40254721 54.83744074 7.20564556 62.67422676 C7.03002873 69.6930787 6.86850728 76.71220017 6.70947266 83.73144531 C6.45078756 95.08965982 6.16496217 106.44701615 5.86456299 117.80419922 C5.74471053 122.3535256 5.63304863 126.90294472 5.52801514 131.45263672 C5.40186848 136.87925808 5.25654814 142.30504692 5.09699059 147.73078537 C5.04063345 149.7520359 4.99084433 151.7734814 4.94797707 153.79506302 C4.88769789 156.58247266 4.80361172 159.36819869 4.71362305 162.15478516 C4.70152235 162.9678714 4.68942165 163.78095764 4.67695427 164.61868286 C4.47572946 169.81868166 3.43650605 172.8750769 0 177 C-4.22994616 179.8199641 -8.03220448 179.79231188 -13 179 C-16.34625024 176.47323961 -17.67977847 174.96066458 -19 171 C-19.08832052 169.63053738 -19.12191579 168.25711695 -19.11949158 166.8848114 C-19.11953721 166.04803014 -19.11958284 165.21124887 -19.11962986 164.3491106 C-19.11358706 163.43299346 -19.10754427 162.51687632 -19.10131836 161.57299805 C-19.09781592 160.60186664 -19.09431349 159.63073523 -19.09070492 158.63017559 C-19.01949005 146.02776795 -18.69502004 133.43017216 -18.37890625 120.83203125 C-18.31388284 118.17372504 -18.24902017 115.51541528 -18.18431091 112.85710144 C-18.04920559 107.32468847 -17.91186938 101.79233431 -17.77319336 96.26000977 C-17.6143226 89.92071001 -17.45932568 83.58132422 -17.30632645 77.24188024 C-17.17326513 71.7328554 -17.03807419 66.22388566 -16.90118736 60.71495456 C-16.82014482 57.45344066 -16.73997598 54.19191031 -16.66131783 50.93033791 C-16.49283537 43.97496955 -16.30737034 37.02057572 -16.09074783 30.06653214 C-16.03152182 28.065179 -15.97901481 26.0636125 -15.93415451 24.06188583 C-15.87455396 21.42019316 -15.79190457 18.78024395 -15.70288086 16.1394043 C-15.69163209 15.38972539 -15.68038332 14.64004648 -15.66879368 13.86765003 C-15.46297991 8.83331647 -14.1801593 5.88147361 -11 2 C-7.29017554 -0.4732163 -4.30111858 -0.54710902 0 0 Z " fill="#F34437" transform="translate(320,205)"/>
<path d="M0 0 C4.06219391 0.04520725 6.5258907 0.61209239 9.75 3.25 C12.17018432 6.88027649 12.00339155 8.55612695 12.01069641 12.87911987 C12.01452196 13.55602501 12.01834751 14.23293015 12.02228898 14.93034756 C12.03262565 17.20348078 12.02862563 19.47636172 12.0246582 21.74951172 C12.02900436 23.3772912 12.03418718 25.00506864 12.04014587 26.63284302 C12.0535586 31.05850276 12.05411195 35.48407721 12.05158257 39.90975332 C12.05051425 43.60263736 12.05539276 47.29550404 12.060188 50.98838437 C12.07129138 59.70043997 12.07171614 68.41245246 12.06567383 77.12451172 C12.05963439 86.11486117 12.07194238 95.10505411 12.0932439 104.09537685 C12.11085352 111.81096072 12.11686221 119.52649474 12.11360615 127.24209797 C12.11179189 131.85161601 12.11444362 136.46102244 12.12832069 141.07052231 C12.14088377 145.4059982 12.1389694 149.74123003 12.12590981 154.07670212 C12.12354102 155.66781191 12.12628951 157.25893879 12.13453293 158.85002899 C12.14497714 161.02260763 12.13691926 163.19436385 12.1242218 165.36691284 C12.12438954 166.5825485 12.12455729 167.79818417 12.12473011 169.05065727 C11.71074225 172.58517186 10.88746516 174.43088324 8.75 177.25 C4.5241215 180.06725233 0.71375312 180.04958384 -4.25 179.25 C-7.07424288 177.05977082 -8.66508603 175.41982793 -10.25 172.25 C-10.35514832 170.08232055 -10.39395361 167.91134004 -10.40390015 165.74113464 C-10.4082824 165.06508393 -10.41266465 164.38903322 -10.4171797 163.69249612 C-10.43058523 161.41633254 -10.43675045 159.14020769 -10.44287109 156.86401367 C-10.45077064 155.23638228 -10.45903949 153.60875265 -10.46765137 151.98112488 C-10.49388696 146.62675656 -10.50917978 141.27238035 -10.5234375 135.91796875 C-10.52879641 134.07622078 -10.53417391 132.23447286 -10.53956985 130.39272499 C-10.56120016 122.73304389 -10.57993788 115.07336492 -10.59119225 107.413661 C-10.60743806 96.42826906 -10.64062934 85.44323047 -10.69759309 74.45797175 C-10.73626227 66.73817185 -10.7558213 59.01846659 -10.76111281 51.29857236 C-10.76477022 46.68556877 -10.77683264 42.0729419 -10.80921555 37.46004295 C-10.83924345 33.12038437 -10.84562711 28.7813315 -10.83383179 24.44159126 C-10.83361061 22.84884766 -10.84195208 21.25607637 -10.85948563 19.66342926 C-10.88212974 17.48816003 -10.87390795 15.31509618 -10.85800171 13.13981628 C-10.86131186 11.9228818 -10.864622 10.70594732 -10.86803246 9.45213604 C-10.07821194 5.35993549 -8.38252226 3.89534844 -5.25 1.25 C-3.68966377 -0.31033623 -2.16052864 0.04292441 0 0 Z " fill="#F34235" transform="translate(255.25,204.75)"/>
</svg>
