<?xml version="1.0" encoding="UTF-8"?>
<svg version="1.1" xmlns="http://www.w3.org/2000/svg" width="512" height="512">
<path d="M0 0 C1.45108658 0.00273422 1.45108658 0.00273422 2.93148804 0.00552368 C17.26440977 0.05095174 31.21023917 0.55983928 45.3125 3.3125 C46.65803955 3.55395752 46.65803955 3.55395752 48.03076172 3.80029297 C107.84088904 14.62287989 165.35495829 48.68064457 202.3125 97.3125 C202.72918945 97.85277832 203.14587891 98.39305664 203.57519531 98.94970703 C211.2584873 108.9447116 218.00092968 119.40459036 224.3125 130.3125 C224.70679199 130.98974121 225.10108398 131.66698242 225.50732422 132.36474609 C238.68961173 155.2833756 247.29510918 180.85822563 252.625 206.6875 C252.77243652 207.39817627 252.91987305 208.10885254 253.07177734 208.84106445 C256.05713787 224.48358366 256.6873098 240.11919606 256.625 256 C256.62226578 257.45108658 256.62226578 257.45108658 256.61947632 258.93148804 C256.57404826 273.26440977 256.06516072 287.21023917 253.3125 301.3125 C253.15152832 302.20952637 252.99055664 303.10655273 252.82470703 304.03076172 C242.00212011 363.84088904 207.94435543 421.35495829 159.3125 458.3125 C158.77222168 458.72918945 158.23194336 459.14587891 157.67529297 459.57519531 C147.6802884 467.2584873 137.22040964 474.00092968 126.3125 480.3125 C125.63525879 480.70679199 124.95801758 481.10108398 124.26025391 481.50732422 C101.3416244 494.68961173 75.76677437 503.29510918 49.9375 508.625 C49.22682373 508.77243652 48.51614746 508.91987305 47.78393555 509.07177734 C32.14141634 512.05713787 16.50580394 512.6873098 0.625 512.625 C-0.34239105 512.62317719 -1.3097821 512.62135437 -2.30648804 512.61947632 C-16.63940977 512.57404826 -30.58523917 512.06516072 -44.6875 509.3125 C-45.58452637 509.15152832 -46.48155273 508.99055664 -47.40576172 508.82470703 C-107.21588904 498.00212011 -164.72995829 463.94435543 -201.6875 415.3125 C-202.10418945 414.77222168 -202.52087891 414.23194336 -202.95019531 413.67529297 C-210.6334873 403.6802884 -217.37592968 393.22040964 -223.6875 382.3125 C-224.08179199 381.63525879 -224.47608398 380.95801758 -224.88232422 380.26025391 C-238.06461173 357.3416244 -246.67010918 331.76677437 -252 305.9375 C-252.14743652 305.22682373 -252.29487305 304.51614746 -252.44677734 303.78393555 C-255.43213787 288.14141634 -256.0623098 272.50580394 -256 256.625 C-255.99817719 255.65760895 -255.99635437 254.6902179 -255.99447632 253.69351196 C-255.94904826 239.36059023 -255.44016072 225.41476083 -252.6875 211.3125 C-252.44604248 209.96696045 -252.44604248 209.96696045 -252.19970703 208.59423828 C-241.37712011 148.78411096 -207.31935543 91.27004171 -158.6875 54.3125 C-158.14722168 53.89581055 -157.60694336 53.47912109 -157.05029297 53.04980469 C-147.0552884 45.3665127 -136.59540964 38.62407032 -125.6875 32.3125 C-125.01025879 31.91820801 -124.33301758 31.52391602 -123.63525391 31.11767578 C-100.7166244 17.93538827 -75.14177437 9.32989082 -49.3125 4 C-48.60182373 3.85256348 -47.89114746 3.70512695 -47.15893555 3.55322266 C-31.51641634 0.56786213 -15.88080394 -0.0623098 0 0 Z M-155.9765625 84.7890625 C-158.23005176 86.88669083 -160.52090164 88.8930911 -162.875 90.875 C-203.10781924 125.98577654 -226.98038068 183.56287845 -231.46044922 235.80664062 C-235.39203306 296.51367707 -218.81549792 358.43358369 -178.28222656 404.92431641 C-175.95860997 407.51518856 -173.59285198 410.06432417 -171.2109375 412.6015625 C-169.11330917 414.85505176 -167.1069089 417.14590164 -165.125 419.5 C-130.01422346 459.73281924 -72.43712155 483.60538068 -20.19335938 488.08544922 C40.51367707 492.01703306 102.43358369 475.44049792 148.92431641 434.90722656 C151.51518856 432.58360997 154.06432417 430.21785198 156.6015625 427.8359375 C158.85505176 425.73830917 161.14590164 423.7319089 163.5 421.75 C203.73281924 386.63922346 227.60538068 329.06212155 232.08544922 276.81835938 C236.01703306 216.11132293 219.44049792 154.19141631 178.90722656 107.70068359 C176.58360997 105.10981144 174.21785198 102.56067583 171.8359375 100.0234375 C169.73830917 97.76994824 167.7319089 95.47909836 165.75 93.125 C130.63922346 52.89218076 73.06212155 29.01961932 20.81835938 24.53955078 C-44.07570975 20.33680118 -108.09876386 39.84223168 -155.9765625 84.7890625 Z " fill="#000000" transform="translate(255.6875,-0.3125)"/>
<path d="M0 0 C12.92410612 -0.38256685 24.65392019 3.32991551 34.26953125 12.09375 C40.00332798 18.57490058 42.23669118 26.06346187 42.28515625 34.53515625 C42.29933594 35.63601562 42.31351562 36.736875 42.328125 37.87109375 C41.8721966 50.35484745 38.69141968 61.90698137 35.15957642 73.79751587 C33.78144666 78.44430729 32.43949202 83.10155888 31.09375 87.7578125 C30.83059494 88.66591171 30.56743988 89.57401093 30.29631042 90.5096283 C21.68450412 116.15859678 21.68450412 116.15859678 22.72265625 142.453125 C25.00208524 145.28298428 27.60852159 145.46441654 31.09765625 146.16015625 C34.00084655 146.43934879 36.86976748 146.49264606 39.78515625 146.47265625 C40.56810059 146.47136719 41.35104492 146.47007812 42.15771484 146.46875 C48.75817663 146.36047915 54.81670148 145.22917665 61.09765625 143.16015625 C60.81280779 144.89045916 60.51945687 146.61936339 60.22265625 148.34765625 C60.06023437 149.31058594 59.8978125 150.27351562 59.73046875 151.265625 C59.52164063 152.22082031 59.3128125 153.17601562 59.09765625 154.16015625 C58.91589844 155.0315625 58.73414063 155.90296875 58.546875 156.80078125 C56.24822625 160.54305576 52.81294103 161.31689004 48.78515625 162.72265625 C47.97280518 163.02002686 47.1604541 163.31739746 46.32348633 163.6237793 C43.92233779 164.49251157 41.51275923 165.33112175 39.09765625 166.16015625 C37.90140625 166.5778125 36.70515625 166.99546875 35.47265625 167.42578125 C17.65159432 173.27877708 -0.71173421 174.79016449 -18.08984375 166.97265625 C-27.28887241 162.08795741 -32.6593072 154.88926589 -35.90234375 145.16015625 C-36.08176666 142.47763661 -36.18012784 139.84485354 -36.21484375 137.16015625 C-36.24384766 136.474375 -36.27285156 135.78859375 -36.30273438 135.08203125 C-36.50189012 117.55632589 -29.63583639 99.63230556 -24.77734375 83.03515625 C-23.8238163 79.76094327 -22.87233347 76.48616 -21.92385864 73.21047974 C-21.33944802 71.19380654 -20.75199209 69.17801225 -20.16085815 67.16329956 C-14.38793803 48.56970111 -14.38793803 48.56970111 -16.7890625 29.83984375 C-17.90500063 27.87629287 -17.90500063 27.87629287 -20.71484375 26.59765625 C-22.64248844 26.26331913 -22.64248844 26.26331913 -24.90234375 26.16015625 C-25.92972656 26.08152344 -26.95710938 26.00289062 -28.015625 25.921875 C-35.72794469 25.62161784 -42.08492972 26.73160108 -49.35546875 29.28515625 C-51.90234375 30.16015625 -51.90234375 30.16015625 -53.90234375 30.16015625 C-53.90930398 24.09779732 -53.58833917 18.19488822 -49.90234375 13.16015625 C-42.55054986 8.23795659 -33.38713751 6.2870911 -24.90234375 4.16015625 C-23.80921875 3.87519287 -22.71609375 3.59022949 -21.58984375 3.29663086 C-14.3228936 1.42701646 -7.48151343 0.4128426 0 0 Z " fill="#000000" transform="translate(250.90234375,212.83984375)"/>
<path d="M0 0 C7.66280334 5.64346075 12.86019026 11.60946803 15 21 C16.18364654 29.01457056 13.81667715 36.44937953 9.59765625 43.265625 C4.3974484 49.92799398 -3.11082367 53.37027456 -11 56 C-23.03827327 57.04421206 -32.85646193 55.49256421 -42.5 47.625 C-48.59674341 41.79388234 -52.01181943 34.65884812 -52.3125 26.1875 C-52.03137288 16.78379784 -48.96679393 11.04204486 -42.48046875 4.23828125 C-31.48170798 -5.68658477 -12.82170672 -7.98729271 0 0 Z " fill="#000000" transform="translate(300,132)"/>
</svg>
