<?xml version="1.0" encoding="UTF-8"?>
<svg version="1.1" xmlns="http://www.w3.org/2000/svg" width="512" height="512" fill="white">
    <path d="M0 0 C1.35362137 -0.00018127 1.35362137 -0.00018127 2.73458862 -0.00036621 C17.21434082 0.02719809 30.98287383 1.09837995 45.125 4.375 C46.54383681 4.66877076 47.96308576 4.96056066 49.3828125 5.25 C89.1888343 13.81431114 129.48175539 38.74623146 155.125 70.375 C155.80433594 71.16648437 156.48367188 71.95796875 157.18359375 72.7734375 C191.96058866 113.87900168 207.39960447 167.21084649 203.91845703 220.5390625 C202.00288152 243.19282505 196.27083482 264.61231941 187.125 285.375 C186.81868652 286.09703613 186.51237305 286.81907227 186.19677734 287.56298828 C176.84074143 309.59592212 162.38286449 328.95299213 146.125 346.375 C150.48690438 351.7339111 155.25394153 356.57937289 160.19018555 361.40307617 C163.07954742 364.24710788 165.82966071 367.14715669 168.47265625 370.22265625 C172.46261513 374.84065909 176.77532522 379.09830634 181.125 383.375 C186.05410718 388.22140404 190.81472211 393.10497619 195.3203125 398.34765625 C198.74509831 402.19498057 202.45354526 405.76514685 206.125 409.375 C214.69063834 417.79691957 214.69063834 417.79691957 218.59375 422.34375 C222.68702757 427.10666514 227.15146937 431.47214126 231.625 435.875 C236.72484131 440.89427509 241.67683483 445.93545625 246.33789062 451.36523438 C249.75500884 455.2080919 253.45958665 458.77108687 257.125 462.375 C262.08012237 467.24698273 266.86794612 472.15668028 271.39648438 477.42822266 C275.00426138 481.49155794 278.96821989 485.21728911 282.87109375 488.99414062 C290.8510294 496.83649118 290.8510294 496.83649118 291.375 501.69140625 C290.94456659 505.55858146 290.56275732 507.81412344 288.125 510.9375 C284.15760088 512.83854541 280.42559128 513.56060821 276.125 512.375 C274.42130828 510.7461998 272.76077576 509.07199535 271.125 507.375 C269.29466855 505.55558939 267.4639152 503.73660315 265.6328125 501.91796875 C264.04761789 500.3401599 262.46291034 498.76186367 260.87841797 497.18334961 C259.79728983 496.10724621 258.71526533 495.03204256 257.63232422 493.95776367 C252.18110388 488.54883299 246.80983967 483.13467042 241.81982422 477.2902832 C238.44178148 473.47283214 234.75823969 469.9472793 231.125 466.375 C226.19589282 461.52859596 221.43527789 456.64502381 216.9296875 451.40234375 C213.50490169 447.55501943 209.79645474 443.98485315 206.125 440.375 C201.19589282 435.52859596 196.43527789 430.64502381 191.9296875 425.40234375 C188.50490169 421.55501943 184.79645474 417.98485315 181.125 414.375 C176.19589282 409.52859596 171.43527789 404.64502381 166.9296875 399.40234375 C163.50490169 395.55501943 159.79645474 391.98485315 156.125 388.375 C151.12525162 383.45914001 146.28130948 378.50631921 141.71044922 373.1875 C139.47484357 370.63173525 137.10515181 368.25953329 134.6875 365.875 C133.39005859 364.59109375 133.39005859 364.59109375 132.06640625 363.28125 C131.42574219 362.6521875 130.78507812 362.023125 130.125 361.375 C125.77713406 364.21319027 121.47514548 367.06099796 117.375 370.25 C102.8247332 381.24862687 86.14246174 389.03871105 69.125 395.375 C67.46210937 396.02082031 67.46210937 396.02082031 65.765625 396.6796875 C48.73881374 402.88176128 29.56982402 406.43212675 11.4375 406.61328125 C10.21951721 406.62783607 10.21951721 406.62783607 8.97692871 406.64268494 C6.35956833 406.66752796 3.74246641 406.68020334 1.125 406.6875 C0.23127686 406.69011841 -0.66244629 406.69273682 -1.58325195 406.69543457 C-16.04359261 406.69997166 -29.74715006 405.62611813 -43.875 402.375 C-45.29520265 402.08153572 -46.71575565 401.78975976 -48.13671875 401.5 C-87.94246126 392.92840577 -128.23010729 368.00580133 -153.875 336.375 C-154.55433594 335.58351563 -155.23367187 334.79203125 -155.93359375 333.9765625 C-191.11252568 292.39591852 -206.8195499 237.94630573 -202.41015625 184 C-198.30147714 141.93682424 -180.87834598 95.66523097 -149.5078125 65.97265625 C-147.73391228 64.23695005 -146.1601626 62.39861765 -144.5625 60.5 C-109.58680713 20.39657973 -52.00058759 -0.10714529 0 0 Z M-109.875 57.375 C-111.20917969 58.39207031 -111.20917969 58.39207031 -112.5703125 59.4296875 C-121.7819134 66.61993397 -130.43983359 74.34538481 -137.875 83.375 C-138.55949219 84.17164063 -139.24398437 84.96828125 -139.94921875 85.7890625 C-160.73138688 110.37948134 -173.40366994 139.01030538 -179.875 170.375 C-180.11089844 171.4990625 -180.34679687 172.623125 -180.58984375 173.78125 C-188.78520575 219.24457203 -177.09146199 268.64505903 -150.9765625 306.46484375 C-142.81486445 317.77990749 -142.81486445 317.77990749 -133.31640625 327.96875 C-131.875 329.375 -131.875 329.375 -129.9375 331.875 C-126.9543271 335.49096715 -123.46180843 338.37097284 -119.875 341.375 C-119.01261719 342.10203125 -118.15023437 342.8290625 -117.26171875 343.578125 C-96.75056628 360.63690527 -73.38476505 372.71063113 -47.875 380.375 C-46.88757813 380.68179687 -45.90015625 380.98859375 -44.8828125 381.3046875 C1.68356691 394.39726374 51.03133726 384.71592365 92.671875 361.953125 C99.20050066 358.26010843 105.19205177 353.94925779 111.125 349.375 C112.01445312 348.69695312 112.90390625 348.01890625 113.8203125 347.3203125 C123.0319134 340.13006603 131.68983359 332.40461519 139.125 323.375 C139.80949219 322.57835937 140.49398438 321.78171875 141.19921875 320.9609375 C161.98138688 296.37051866 174.65366994 267.73969462 181.125 236.375 C181.36089844 235.2509375 181.59679687 234.126875 181.83984375 232.96875 C190.03520575 187.50542797 178.34146199 138.10494097 152.2265625 100.28515625 C144.06486445 88.97009251 144.06486445 88.97009251 134.56640625 78.78125 C133.125 77.375 133.125 77.375 131.1875 74.875 C128.2043271 71.25903285 124.71180843 68.37902716 121.125 65.375 C120.26261719 64.64796875 119.40023438 63.9209375 118.51171875 63.171875 C98.00056628 46.11309473 74.63476505 34.03936887 49.125 26.375 C47.64386719 25.91480469 47.64386719 25.91480469 46.1328125 25.4453125 C-6.7905826 10.56540141 -66.75640809 24.13089479 -109.875 57.375 Z "
          transform="translate(211.875,-0.375)"/>
</svg>
