<?xml version="1.0" encoding="UTF-8"?>
<svg version="1.1" xmlns="http://www.w3.org/2000/svg" width="512" height="512">
    <path fill="black"
          d="M0 0 C1.83893829 -0.00935994 1.83893829 -0.00935994 3.71502686 -0.01890898 C7.11067264 -0.03209356 10.50543213 -0.02736248 13.90102386 -0.0149641 C17.56571995 -0.0059106 21.23033881 -0.0198848 24.89501953 -0.03088379 C32.07118816 -0.04867046 39.24718945 -0.04482842 46.42336464 -0.03323323 C52.25556435 -0.02419974 58.08771717 -0.02297453 63.91992188 -0.02732849 C64.74998497 -0.02794142 65.58004807 -0.02855436 66.43526459 -0.02918586 C68.12152101 -0.03046476 69.80777742 -0.03176162 71.49403381 -0.03307623 C87.30614256 -0.04448245 103.11815854 -0.03136766 118.93025208 -0.00987476 C132.49781867 0.00799627 146.06524837 0.00489218 159.6328125 -0.0135498 C175.38832859 -0.03495577 191.14376339 -0.04338381 206.89929199 -0.03110075 C208.57934569 -0.02982655 210.2593994 -0.02856907 211.93945312 -0.02732849 C212.76607201 -0.02671139 213.59269089 -0.02609429 214.44435883 -0.02545848 C220.26956636 -0.02200476 226.09472233 -0.02783441 231.91992188 -0.0372467 C239.01891224 -0.04846503 246.11772569 -0.04543022 253.21669579 -0.02412373 C256.83875643 -0.01361096 260.4605221 -0.00949506 264.08258057 -0.02272034 C268.00834553 -0.03683776 271.93362745 -0.01998152 275.859375 0 C277.00508972 -0.00892289 278.15080444 -0.01784577 279.33123779 -0.02703905 C285.52083675 0.03425953 289.23421934 0.34111658 293.9296875 4.50793457 C298.34384591 9.15441711 298.39727011 13.39586523 298.4609375 19.50793457 C297.32776955 25.90700062 292.38469614 30.34276401 287.93286133 34.75872803 C287.03767021 35.65859912 287.03767021 35.65859912 286.12439442 36.57664943 C284.13322228 38.57576766 282.13501557 40.56769782 280.13671875 42.55969238 C278.70379864 43.99532379 277.27130408 45.43138006 275.83920288 46.86782837 C271.95553709 50.76060217 268.0655832 54.64703473 264.17419052 58.53208256 C260.10247032 62.59873654 256.0356351 66.67027099 251.96801758 70.74102783 C245.13884844 77.57383396 238.30547646 84.40241561 231.46972656 91.2286377 C223.5633969 99.12407463 215.66430979 107.02670254 207.76892948 114.93308759 C200.99035586 121.72073128 194.20789983 128.50447702 187.42217159 135.28496814 C183.36902168 139.33499794 179.31724016 143.38637188 175.26895142 147.44126129 C171.46498971 151.25099202 167.65618462 155.0558127 163.84355545 158.85686874 C162.44378787 160.25398775 161.04572699 161.65281905 159.64948654 163.05346298 C157.74640853 164.96198973 155.83730388 166.8642749 153.92651367 168.76507568 C153.37281507 169.32323573 152.81911646 169.88139578 152.24863911 170.45646977 C147.56331434 175.09425989 144.63860809 176.79916968 138.0546875 176.88293457 C137.04664063 176.91129395 136.03859375 176.93965332 135 176.96887207 C128.54902934 176.00040574 124.10027596 170.96840512 119.67889404 166.5111084 C119.07897998 165.91431432 118.47906592 165.31752024 117.86097264 164.70264149 C115.86185441 162.71146935 113.86992425 160.71326264 111.87792969 158.71496582 C110.44229828 157.28204571 109.00624201 155.84955116 107.5697937 154.41744995 C103.6770199 150.53378416 99.79058734 146.64383027 95.90553951 142.75243759 C91.83888553 138.68071739 87.76735108 134.61388217 83.69659424 130.54626465 C76.86378811 123.71709551 70.03520646 116.88372353 63.20898438 110.04797363 C55.31354744 102.14164397 47.41091953 94.24255686 39.50453448 86.34717655 C32.7168908 79.56860293 25.93314505 72.7861469 19.15265393 66.00041866 C15.10262413 61.94726875 11.05125019 57.89548723 6.99636078 53.84719849 C3.18663005 50.04323678 -0.61819062 46.23443169 -4.41924667 42.42180252 C-5.81636568 41.02203494 -7.21519698 39.62397406 -8.61584091 38.22773361 C-10.52436766 36.3246556 -12.42665283 34.41555095 -14.32745361 32.50476074 C-14.88561366 31.95106214 -15.44377371 31.39736353 -16.0188477 30.82688618 C-20.65663782 26.14156141 -22.36154761 23.21685516 -22.4453125 16.63293457 C-22.34394668 11.4252655 -21.76979648 8.40212824 -18.0703125 4.50793457 C-12.4990255 -0.43609616 -7.217591 -0.05621098 0 0 Z "
          transform="translate(118.0703125,303.4920654296875)"/>
    <path fill="gray"
          d="M0 0 C1.00804687 -0.02835938 2.01609375 -0.05671875 3.0546875 -0.0859375 C9.50565816 0.88252883 13.95441154 5.91452945 18.37579346 10.37182617 C18.97570752 10.96862025 19.57562158 11.56541433 20.19371486 12.18029308 C22.19283309 14.17146522 24.18476325 16.16967193 26.17675781 18.16796875 C27.61238922 19.60088886 29.04844549 21.03338342 30.4848938 22.46548462 C34.3776676 26.34915041 38.26410016 30.2391043 42.14914799 34.13049698 C46.21580197 38.20221718 50.28733642 42.2690524 54.35809326 46.33666992 C61.19089939 53.16583906 68.01948104 59.99921104 74.84570312 66.83496094 C82.74114006 74.7412906 90.64376797 82.64037771 98.55015302 90.53575802 C105.3377967 97.31433164 112.12154245 104.09678767 118.90203357 110.88251591 C122.95206337 114.93566582 127.00343731 118.98744734 131.05832672 123.03573608 C134.86805745 126.83969779 138.67287812 130.64850288 142.47393417 134.46113205 C143.87105318 135.86089963 145.26988448 137.25896051 146.67052841 138.65520096 C148.57905516 140.55827897 150.48134033 142.46738362 152.38214111 144.37817383 C152.94030116 144.93187243 153.49846121 145.48557104 154.0735352 146.05604839 C158.71132532 150.74137316 160.41623511 153.66607941 160.5 160.25 C160.39863418 165.45766907 159.82448398 168.48080633 156.125 172.375 C150.553713 177.31903073 145.2722785 176.93914555 138.0546875 176.88293457 C136.82872864 176.88917453 135.60276978 176.8954145 134.33966064 176.90184355 C130.94401486 176.91502813 127.54925537 176.91029705 124.15366364 176.89789867 C120.48896755 176.88884517 116.82434869 176.90281937 113.15966797 176.91381836 C105.98349934 176.93160503 98.80749805 176.92776299 91.63132286 176.9161678 C85.79912315 176.90713431 79.96697033 176.9059091 74.13476562 176.91026306 C73.30470253 176.91087599 72.47463943 176.91148893 71.61942291 176.91212043 C69.93316649 176.91339933 68.24691008 176.91469619 66.56065369 176.9160108 C50.74854494 176.92741702 34.93652896 176.91430223 19.12443542 176.89280933 C5.55686883 176.8749383 -8.01056087 176.87804239 -21.578125 176.89648438 C-37.33364109 176.91789034 -53.08907589 176.92631838 -68.84460449 176.91403532 C-70.52465819 176.91276112 -72.2047119 176.91150364 -73.88476562 176.91026306 C-74.71138451 176.90964596 -75.53800339 176.90902886 -76.38967133 176.90839306 C-82.21487886 176.90493933 -88.04003483 176.91076898 -93.86523438 176.92018127 C-100.96422474 176.93139961 -108.06303819 176.92836479 -115.16200829 176.9070583 C-118.78406893 176.89654553 -122.4058346 176.89242963 -126.02789307 176.90565491 C-129.95365803 176.91977233 -133.87893995 176.90291609 -137.8046875 176.88293457 C-138.95040222 176.89185746 -140.09611694 176.90078034 -141.27655029 176.90997362 C-147.46614925 176.84867504 -151.17953184 176.54181799 -155.875 172.375 C-160.28915841 167.72851746 -160.34258261 163.48706934 -160.40625 157.375 C-159.27308205 150.97593395 -154.33000864 146.54017056 -149.87817383 142.12420654 C-149.28137975 141.52429248 -148.68458567 140.92437842 -148.06970692 140.30628514 C-146.07853478 138.30716691 -144.08032807 136.31523675 -142.08203125 134.32324219 C-140.64911114 132.88761078 -139.21661658 131.45155451 -137.78451538 130.0151062 C-133.90084959 126.1223324 -130.0108957 122.23589984 -126.11950302 118.35085201 C-122.04778282 114.28419803 -117.9809476 110.21266358 -113.91333008 106.14190674 C-107.08416094 99.30910061 -100.25078896 92.48051896 -93.41503906 85.65429688 C-85.5087094 77.75885994 -77.60962229 69.85623203 -69.71424198 61.94984698 C-62.93566836 55.1622033 -56.15321233 48.37845755 -49.36748409 41.59796643 C-45.31433418 37.54793663 -41.26255266 33.49656269 -37.21426392 29.44167328 C-33.41030221 25.63194255 -29.60149712 21.82712188 -25.78886795 18.02606583 C-24.38910037 16.62894682 -22.99103949 15.23011552 -21.59479904 13.82947159 C-19.69172103 11.92094484 -17.78261638 10.01865967 -15.87182617 8.11785889 C-15.31812757 7.55969884 -14.76442896 7.00153879 -14.19395161 6.4264648 C-9.50862684 1.78867468 -6.58392059 0.08376489 0 0 Z "
          transform="translate(255.875,31.625)"/>
</svg>
