<?xml version="1.0" standalone="no"?>
<!DOCTYPE svg PUBLIC "-//W3C//DTD SVG 20010904//EN"
 "http://www.w3.org/TR/2001/REC-SVG-20010904/DTD/svg10.dtd">
<svg version="1.0" xmlns="http://www.w3.org/2000/svg"
 width="512.000000pt" height="512.000000pt" viewBox="0 0 512.000000 512.000000"
 preserveAspectRatio="xMidYMid meet">

<g transform="translate(0.000000,512.000000) scale(0.100000,-0.100000)"
fill="#000000" stroke="none">
<path d="M235 3986 c-62 -20 -97 -41 -142 -88 -62 -64 -88 -127 -88 -218 0
-149 -84 -55 1208 -1347 1292 -1292 1198 -1208 1347 -1208 149 0 55 -84 1347
1208 1293 1292 1208 1198 1208 1347 -1 56 -6 88 -23 126 -29 63 -101 136 -167
166 l-50 23 -2300 2 c-1835 1 -2308 -1 -2340 -11z"/>
</g>
</svg>
