<?xml version="1.0" encoding="UTF-8"?>
<svg version="1.1" xmlns="http://www.w3.org/2000/svg" width="512" height="512">
<path d="M0 0 C9.34649223 6.85512593 17.20547905 16.70091544 19.421875 28.35546875 C19.51247258 30.74163884 19.54383029 33.13023868 19.54212952 35.51812744 C19.54341115 36.60131181 19.54341115 36.60131181 19.54471868 37.7063787 C19.54636588 40.1262178 19.54086455 42.54598759 19.53540039 44.96582031 C19.53511833 46.7003784 19.53527662 48.43493661 19.5358429 50.16949463 C19.53613013 54.87986178 19.53024531 59.59020353 19.52326894 64.30056477 C19.51702312 69.22265304 19.51643063 74.14474187 19.51524353 79.0668335 C19.51213385 88.3881885 19.50392533 97.7095318 19.49389404 107.03088164 C19.48272166 117.64262097 19.47721961 128.25436086 19.47219861 138.8661046 C19.46174243 160.69589919 19.44414998 182.52568323 19.421875 204.35546875 C20.76448536 204.3485553 20.76448536 204.3485553 22.13421917 204.34150219 C43.95307777 204.2308904 65.77188777 204.14824777 87.59096813 204.09640789 C98.14269798 204.07066961 108.69424021 204.03560299 119.24584961 203.97827148 C128.44687589 203.92830229 137.64776624 203.89614596 146.84892446 203.88502628 C151.7170882 203.87853036 156.58486318 203.86335501 161.45290184 203.82681847 C166.04368503 203.79264503 170.63392277 203.78245848 175.22482109 203.78993034 C176.90128808 203.78856527 178.57777509 203.77876066 180.25413132 203.75944138 C195.80432002 203.58916356 207.54639049 207.01067617 219.09375 217.9375 C229.03484731 228.46788916 230.99149337 240.41967233 230.76171875 254.21484375 C230.21714352 266.55252324 224.02215481 276.2469625 215.234375 284.54296875 C207.23321134 291.05300645 198.45146501 294.4829827 188.25921631 294.47572327 C187.53709339 294.47657769 186.81497048 294.47743212 186.07096505 294.47831243 C183.65112595 294.47995963 181.23135616 294.4744583 178.81152344 294.46899414 C177.07696535 294.46871208 175.34240714 294.46887037 173.60784912 294.46943665 C168.89748197 294.46972388 164.18714022 294.46383906 159.47677898 294.45686269 C154.55469071 294.45061687 149.63260188 294.45002438 144.71051025 294.44883728 C135.38915525 294.4457276 126.06781195 294.43751908 116.74646211 294.42748779 C106.13472278 294.41631541 95.52298289 294.41081336 84.91123915 294.40579236 C63.08144456 294.39533618 41.25166052 294.37774373 19.421875 294.35546875 C19.42648396 295.25054233 19.43109293 296.1456159 19.43584156 297.06781292 C19.54645335 318.88667152 19.62909598 340.70548152 19.68093586 362.52456188 C19.70667414 373.07629173 19.74174076 383.62783396 19.79907227 394.17944336 C19.84904146 403.38046964 19.88119779 412.58135999 19.89231747 421.78251821 C19.89881339 426.65068195 19.91398874 431.51845693 19.95052528 436.38649559 C19.98469872 440.97727878 19.99488527 445.56751652 19.98741341 450.15841484 C19.98877848 451.83488183 19.99858309 453.51136884 20.01790237 455.18772507 C20.18818019 470.73791377 16.76666758 482.47998424 5.83984375 494.02734375 C-4.69054541 503.96844106 -16.64232858 505.92508712 -30.4375 505.6953125 C-42.77517949 505.15073727 -52.46961875 498.95574856 -60.765625 490.16796875 C-67.2756627 482.16680509 -70.70563895 473.38505876 -70.69837952 463.19281006 C-70.69966115 462.10962569 -70.69966115 462.10962569 -70.70096868 461.0045588 C-70.70261588 458.5847197 -70.69711455 456.16494991 -70.69165039 453.74511719 C-70.69136833 452.0105591 -70.69152662 450.27600089 -70.6920929 448.54144287 C-70.69238013 443.83107572 -70.68649531 439.12073397 -70.67951894 434.41037273 C-70.67327312 429.48828446 -70.67268063 424.56619563 -70.67149353 419.644104 C-70.66838385 410.322749 -70.66017533 401.0014057 -70.65014404 391.68005586 C-70.63897166 381.06831653 -70.63346961 370.45657664 -70.62844861 359.8448329 C-70.61799243 338.01503831 -70.60039998 316.18525427 -70.578125 294.35546875 C-71.47319858 294.36007771 -72.36827215 294.36468668 -73.29046917 294.36943531 C-95.10932777 294.4800471 -116.92813777 294.56268973 -138.74721813 294.61452961 C-149.29894798 294.64026789 -159.85049021 294.67533451 -170.40209961 294.73266602 C-179.60312589 294.78263521 -188.80401624 294.81479154 -198.00517446 294.82591122 C-202.8733382 294.83240714 -207.74111318 294.84758249 -212.60915184 294.88411903 C-217.19993503 294.91829247 -221.79017277 294.92847902 -226.38107109 294.92100716 C-228.05753808 294.92237223 -229.73402509 294.93217684 -231.41038132 294.95149612 C-246.96057002 295.12177394 -258.70264049 291.70026133 -270.25 280.7734375 C-280.19109731 270.24304834 -282.14774337 258.29126517 -281.91796875 244.49609375 C-281.37339352 232.15841426 -275.17840481 222.463975 -266.390625 214.16796875 C-258.38946134 207.65793105 -249.60771501 204.2279548 -239.41546631 204.23521423 C-238.69334339 204.23435981 -237.97122048 204.23350538 -237.22721505 204.23262507 C-234.80737595 204.23097787 -232.38760616 204.2364792 -229.96777344 204.24194336 C-228.23321535 204.24222542 -226.49865714 204.24206713 -224.76409912 204.24150085 C-220.05373197 204.24121362 -215.34339022 204.24709844 -210.63302898 204.25407481 C-205.71094071 204.26032063 -200.78885188 204.26091312 -195.86676025 204.26210022 C-186.54540525 204.2652099 -177.22406195 204.27341842 -167.90271211 204.28344971 C-157.29097278 204.29462209 -146.67923289 204.30012414 -136.06748915 204.30514514 C-114.23769456 204.31560132 -92.40791052 204.33319377 -70.578125 204.35546875 C-70.58503845 203.01285839 -70.58503845 203.01285839 -70.59209156 201.64312458 C-70.70270335 179.82426598 -70.78534598 158.00545598 -70.83718586 136.18637562 C-70.86292414 125.63464577 -70.89799076 115.08310354 -70.95532227 104.53149414 C-71.00529146 95.33046786 -71.03744779 86.12957751 -71.04856747 76.92841929 C-71.05506339 72.06025555 -71.07023874 67.19248057 -71.10677528 62.32444191 C-71.14094872 57.73365872 -71.15113527 53.14342098 -71.14366341 48.55252266 C-71.14502848 46.87605567 -71.15483309 45.19956866 -71.17415237 43.52321243 C-71.34443019 27.97302373 -67.92291758 16.23095326 -56.99609375 4.68359375 C-41.74951 -9.70977485 -17.37512065 -11.0832209 0 0 Z " fill="#000000" transform="translate(281.578125,6.64453125)"/>
</svg>
